<?xml version="1.0" encoding="UTF-8"?>
<svg width="1200pt" height="1200pt" version="1.1" viewBox="0 0 1200 1200" xmlns="http://www.w3.org/2000/svg">
 <g>
  <path d="m105.23 276.38v523.75h-78.359c-14.82 0-26.867-11.941-26.867-26.867v-675.86c0-22.859 17.039-41.508 40.465-41.508h346.29c23.328 0 40.465 18.551 40.465 41.426v39.695h535.4c14.891 0 26.855 12.012 26.855 26.773v151.99h-457.03v-39.781c0-22.812-17.039-41.41-40.547-41.41h-346.13c-23.508-0.011718-40.539 18.84-40.539 41.781z"/>
  <path d="m1173.1 481.02h-535.38v-39.695c0-22.859-17.148-41.426-40.57-41.426h-346.21c-23.398 0-40.453 18.648-40.453 41.496v675.91c0 14.844 11.965 26.773 26.867 26.773h935.73c14.891 0 26.867-11.93 26.867-26.773l0.003906-609.52c0.011719-14.762-11.965-26.773-26.855-26.773z"/>
 </g>
</svg>
